<svg xmlns="http://www.w3.org/2000/svg" width="50" height="50" viewBox="0 0 50 50">
    <g fill="none" fill-rule="evenodd">
        <g fill="#1A1C25">
            <g>
                <g>
                    <path d="M34.07 48.177c.042-.013.082-.03.124-.044C59.642 38.043 52.602 0 25 0 11.148 0 0 11.27 0 24.951c0 17.314 17.57 29.67 34.07 23.226zm-23.068-6.469c1.775-2.977 7.519-11.378 17.323-14.276 2.05 5.217 3.488 11.303 3.63 18.204-7.43 2.493-15.265.815-20.953-3.928zm24.025 2.626c-.273-6.63-1.63-12.51-3.562-17.605 4.337-.676 9.358-.225 15.052 2.052-1.21 6.78-5.555 12.48-11.49 15.553zm11.817-18.778c-6.271-2.351-11.798-2.644-16.582-1.734-.74-1.663-1.516-3.262-2.34-4.734 7.34-2.926 11.678-6.492 13.62-8.38 3.427 3.96 5.462 9.085 5.302 14.848zM39.323 8.488c-1.767 1.678-5.927 5.067-13.042 7.838-3.487-5.505-7.216-9.39-9.579-11.564 7.558-3.107 16.275-1.78 22.62 3.726zM13.715 6.286c1.783 1.565 5.698 5.325 9.475 11.138-5.188 1.668-11.692 2.893-19.603 3.065C4.846 14.472 8.604 9.373 13.715 6.286zM3.192 23.62c8.854-.144 16.02-1.54 21.685-3.427.783 1.37 1.527 2.863 2.242 4.414-9.865 3.136-16.03 11.23-18.39 14.886-3.808-4.242-5.908-9.777-5.537-15.873z" transform="translate(-590 -3240) translate(20 3078) translate(570 162)"/>
                </g>
            </g>
        </g>
    </g>
</svg>
