<svg xmlns="http://www.w3.org/2000/svg" width="50" height="50" viewBox="0 0 50 50">
    <g fill="none" fill-rule="evenodd">
        <g fill="#1A1C25">
            <g>
                <g>
                    <path d="M26.892.001c5.069.006 5.997.041 8.396.155 2.65.118 4.464.547 6.052 1.162 1.657.625 3.168 1.612 4.415 2.881 1.277 1.25 2.252 2.754 2.885 4.434.615 1.582 1.043 3.408 1.16 6.064.103 2.34.123 3.28.126 8.063v3.788c-.004 5.39-.038 6.306-.145 8.755-.117 2.656-.546 4.472-1.16 6.064-1.296 3.36-3.947 6.016-7.3 7.315-1.58.615-3.402 1.044-6.053 1.162-2.443.107-3.358.14-8.738.145h-3.09c-5.379-.004-6.294-.038-8.737-.145-2.651-.118-4.464-.547-6.053-1.162-1.657-.625-3.168-1.612-4.415-2.881-1.267-1.25-2.251-2.754-2.885-4.434C.736 39.785.307 37.96.19 35.303.085 32.909.05 31.979.045 26.9v-3.8c.006-5.08.041-6.01.155-8.413.117-2.656.545-4.472 1.16-6.064.624-1.66 1.608-3.174 2.875-4.424C5.482 2.92 6.983 1.943 8.66 1.31 10.239.693 12.061.263 14.712.145c2.39-.105 3.317-.14 8.386-.145zm-1.074 4.54h-1.606c-5.923.003-6.753.034-9.275.146-2.427.108-3.753.518-4.63.86-1.082.4-2.057 1.035-2.865 1.865-.839.801-1.472 1.787-1.872 2.871-.341.88-.75 2.198-.857 4.639-.108 2.408-.141 3.281-.146 8.548v3.099c.005 5.265.038 6.131.146 8.548.107 2.432.516 3.76.857 4.639.4 1.084 1.033 2.06 1.862 2.871.799.83 1.783 1.465 2.865 1.865.877.342 2.193.752 4.63.86 2.458.11 3.314.142 8.897.146h2.362c5.582-.004 6.43-.036 8.897-.147 2.427-.107 3.752-.517 4.63-.859 2.173-.84 3.898-2.568 4.736-4.746.342-.879.75-2.197.858-4.639.112-2.526.144-3.35.146-9.284v-1.607c-.002-5.936-.034-6.767-.146-9.294-.107-2.432-.516-3.76-.858-4.639-.4-1.084-1.033-2.06-1.861-2.871-.8-.83-1.784-1.465-2.866-1.865-.877-.342-2.193-.752-4.63-.86-2.512-.112-3.342-.143-9.274-.146zm-.823 7.617c7.076 0 12.817 5.752 12.817 12.842 0 7.09-5.74 12.842-12.817 12.842-7.076 0-12.817-5.752-12.817-12.842 0-7.09 5.741-12.842 12.817-12.842zm0 4.512c-4.59 0-8.314 3.73-8.314 8.33s3.724 8.33 8.314 8.33S33.31 29.6 33.31 25s-3.723-8.33-8.314-8.33zM38.32 8.652c1.652 0 2.992 1.343 2.992 2.998 0 1.656-1.34 2.998-2.992 2.998-1.653 0-2.993-1.342-2.993-2.998 0-1.655 1.34-2.998 2.993-2.998z" transform="translate(-700 -3240) translate(20 3078) translate(680 162)"/>
                </g>
            </g>
        </g>
    </g>
</svg>
